<?xml version="1.0" encoding="UTF-8"?>
<svg width="79px" height="498px" viewBox="0 0 79 498" version="1.1" xmlns="http://www.w3.org/2000/svg" xmlns:xlink="http://www.w3.org/1999/xlink">
    <title>Untitled</title>
    <g id="Page-1" stroke="none" stroke-width="1" fill="none" fill-rule="evenodd">
        <g id="vibrate-2" transform="translate(39.500000, 249.000000) scale(-1, -1) rotate(90.000000) translate(-39.500000, -249.000000) translate(-209.000000, 210.000000)" fill="#000000" fill-rule="nonzero">
            <path d="M307.783549,77.6190471 C296.670996,77.6190471 286.220779,73.268398 278.393939,65.3722941 L252.861472,39.6493509 C249.857143,36.5974032 247.471862,36.6233766 244.493507,39.6493509 L218.95671,65.3939388 C203.307359,81.1645019 175.857143,81.1645019 160.207792,65.3939388 L134.675325,39.6709957 C131.670996,36.6233766 129.285714,36.6450214 126.30303,39.6709957 L102.593074,63.5281388 C94.2943728,71.8701293 82.8051948,76.5064932 71.0519478,75.701299 C59.3030306,75.0865798 48.3333331,69.4848488 40.9567097,60.3116883 L22.5627706,37.4242421 C21.0995665,35.6753244 18.8268395,35.5324675 18.1645022,35.5324675 C8.37662365,35.5324675 0.432900433,27.5887443 0.432900433,17.8008658 C0.432900433,8.01298729 8.37662365,0.0692640693 18.1645022,0.0692640693 C30.4848479,0.0692640693 42.0909094,5.48484876 49.9870133,14.9437229 L68.6190479,38.0865806 C70.0606061,39.8831166 71.9264072,40.2380955 72.9220776,40.2857137 C73.8917746,40.476191 75.8051951,40.2164497 77.4112549,38.5367971 L101.103896,14.6580081 C116.753246,-1.11255384 144.203463,-1.11255384 159.852814,14.6580081 L185.385281,40.3809524 C188.389611,43.4285714 190.779221,43.4069267 193.757576,40.3809524 L219.290043,14.6363634 C234.939394,-1.13419969 262.38961,-1.13419969 278.038961,14.6363634 L303.575758,40.3549778 C306.575758,43.4069267 308.965368,43.3852819 311.943723,40.3549778 L337.47619,14.6103899 C353.12987,-1.16017316 380.575757,-1.16017316 396.229437,14.6103899 L419.917749,38.4891778 C421.549783,40.1428569 423.484848,40.4285717 424.406927,40.2380955 C425.402597,40.1904762 427.268399,39.8354973 428.709957,38.0389613 L447.12987,15.1298704 C455.238095,5.43722944 466.822511,0 479.138528,0 C488.926407,0 496.87013,7.94372322 496.87013,17.7316017 C496.87013,27.5194802 488.926407,35.4632035 479.138528,35.4632035 C478.480519,35.4632035 476.207792,35.6060603 474.554113,37.5930736 L456.350649,60.2380955 C448.974026,69.4112549 438.025974,75.0173157 426.277057,75.6320349 C414.549783,76.4805198 403.034632,71.8008652 394.735931,63.4545449 L371.047619,39.5757581 C368.047619,36.5281391 365.658009,36.5497838 362.679654,39.5757581 L337.147186,65.3246748 C329.341992,73.268398 318.896104,77.6190471 307.783549,77.6190471 Z" id="Path"></path>
        </g>
    </g>
</svg>