<?xml version="1.0" encoding="UTF-8"?>
<svg width="884px" height="1279px" viewBox="0 0 884 1279" version="1.1" xmlns="http://www.w3.org/2000/svg" xmlns:xlink="http://www.w3.org/1999/xlink">
    <title>BMC Logo - White</title>
    <g id="Page-1" stroke="none" stroke-width="1" fill="none" fill-rule="evenodd">
        <g id="BMC-Logo---White" fill-rule="nonzero">
            <path d="M791.109,297.518 L790.231,297.002 L788.201,296.383 C789.018,297.072 790.04,297.472 791.109,297.518 L791.109,297.518 Z" id="Path" fill="#0D0C22"></path>
            <path d="M803.896,388.891 L802.916,389.166 L803.896,388.891 Z" id="Path" fill="#0D0C22"></path>
            <path d="M791.484,297.377 C791.359,297.361 791.237,297.332 791.118,297.29 C791.111,297.371 791.111,297.453 791.118,297.534 C791.252,297.516 791.379,297.462 791.484,297.377 L791.484,297.377 Z" id="Path" fill="#0D0C22"></path>
            <polygon id="Path" fill="#0D0C22" points="791.113 297.529 791.244 297.529 791.244 297.447"></polygon>
            <path d="M803.111,388.726 L804.591,387.883 L805.141,387.573 L805.64,387.04 C804.702,387.444 803.845,388.016 803.111,388.726 L803.111,388.726 Z" id="Path" fill="#0D0C22"></path>
            <path d="M793.669,299.515 L792.223,298.138 L791.243,297.605 C791.77,298.535 792.641,299.221 793.669,299.515 L793.669,299.515 Z" id="Path" fill="#0D0C22"></path>
            <path d="M430.019,1186.18 C428.864,1186.68 427.852,1187.46 427.076,1188.45 L427.988,1187.87 C428.608,1187.3 429.485,1186.63 430.019,1186.18 Z" id="Path" fill="#0D0C22"></path>
            <path d="M641.187,1144.63 C641.187,1143.33 640.551,1143.57 640.706,1148.21 C640.706,1147.84 640.861,1147.46 640.929,1147.1 C641.015,1146.27 641.084,1145.46 641.187,1144.63 Z" id="Path" fill="#0D0C22"></path>
            <path d="M619.284,1186.18 C618.129,1186.68 617.118,1187.46 616.342,1188.45 L617.254,1187.87 C617.873,1187.3 618.751,1186.63 619.284,1186.18 Z" id="Path" fill="#0D0C22"></path>
            <path d="M281.304,1196.06 C280.427,1195.3 279.354,1194.8 278.207,1194.61 C279.136,1195.06 280.065,1195.51 280.684,1195.85 L281.304,1196.06 Z" id="Path" fill="#0D0C22"></path>
            <path d="M247.841,1164.01 C247.704,1162.66 247.288,1161.35 246.619,1160.16 C247.093,1161.39 247.489,1162.66 247.806,1163.94 L247.841,1164.01 Z" id="Path" fill="#0D0C22"></path>
            <path d="M78.6885,386.132 L79.4799,386.872 L79.9962,387.182 C79.5987,386.787 79.1603,386.435 78.6885,386.132 L78.6885,386.132 Z" id="Path" fill="#0D0C22"></path>
            <path d="M879.567,341.849 L872.53,306.352 C866.215,274.503 851.882,244.409 819.19,232.898 C808.711,229.215 796.821,227.633 788.786,220.01 C780.751,212.388 778.376,200.55 776.518,189.572 C773.076,169.423 769.842,149.257 766.314,129.143 C763.269,111.85 760.86,92.4243 752.928,76.56 C742.604,55.2584 721.182,42.8009 699.88,34.559 C688.965,30.4844 677.826,27.0375 666.517,24.2352 C613.297,10.1947 557.342,5.03277 502.591,2.09047 C436.875,-1.53577 370.983,-0.443234 305.422,5.35968 C256.625,9.79894 205.229,15.1674 158.858,32.0469 C141.91,38.224 124.445,45.6399 111.558,58.7341 C95.7448,74.8221 90.5829,99.7026 102.128,119.765 C110.336,134.012 124.239,144.078 138.985,150.737 C158.192,159.317 178.251,165.846 198.829,170.215 C256.126,182.879 315.471,187.851 374.007,189.968 C438.887,192.586 503.87,190.464 568.44,183.618 C584.408,181.863 600.347,179.758 616.257,177.304 C634.995,174.43 647.022,149.928 641.499,132.859 C634.891,112.453 617.134,104.538 597.055,107.618 C594.095,108.082 591.153,108.512 588.193,108.942 L586.06,109.252 C579.257,110.113 572.455,110.915 565.653,111.661 C551.601,113.175 537.515,114.414 523.394,115.378 C491.768,117.58 460.057,118.595 428.363,118.647 C397.219,118.647 366.058,117.769 334.983,115.722 C320.805,114.793 306.661,113.611 292.552,112.177 C286.134,111.506 279.733,110.801 273.333,110.009 L267.241,109.235 L265.917,109.046 L259.602,108.134 C246.697,106.189 233.792,103.953 221.025,101.251 C219.737,100.965 218.584,100.249 217.758,99.2193 C216.932,98.1901 216.482,96.9099 216.482,95.5903 C216.482,94.2706 216.932,92.9904 217.758,91.9612 C218.584,90.9319 219.737,90.2152 221.025,89.9293 L221.266,89.9293 C232.33,87.5721 243.479,85.5589 254.663,83.8038 C258.392,83.2188 262.131,82.6453 265.882,82.0832 L265.985,82.0832 C272.988,81.6186 280.026,80.3625 286.994,79.5366 C347.624,73.2302 408.614,71.0801 469.538,73.1014 C499.115,73.9618 528.676,75.6996 558.116,78.6935 C564.448,79.3474 570.746,80.0357 577.043,80.8099 C579.452,81.1025 581.878,81.4465 584.305,81.7391 L589.191,82.4445 C603.438,84.5667 617.61,87.1419 631.708,90.1703 C652.597,94.7128 679.422,96.1925 688.713,119.077 C691.673,126.338 693.015,134.408 694.649,142.03 L696.731,151.752 C696.786,151.926 696.826,152.105 696.852,152.285 C701.773,175.227 706.7,198.169 711.632,221.111 C711.994,222.806 712.002,224.557 711.657,226.255 C711.312,227.954 710.621,229.562 709.626,230.982 C708.632,232.401 707.355,233.6 705.877,234.504 C704.398,235.408 702.75,235.997 701.033,236.236 L700.895,236.236 L697.884,236.649 L694.908,237.044 C685.478,238.272 676.038,239.419 666.586,240.486 C647.968,242.608 629.322,244.443 610.648,245.992 C573.539,249.077 536.356,251.102 499.098,252.066 C480.114,252.57 461.135,252.806 442.162,252.771 C366.643,252.712 291.189,248.322 216.173,239.625 C208.051,238.662 199.93,237.629 191.808,236.58 C198.106,237.389 187.231,235.96 185.029,235.651 C179.867,234.928 174.705,234.177 169.543,233.397 C152.216,230.798 134.993,227.598 117.7,224.793 C96.7944,221.352 76.8005,223.073 57.8906,233.397 C42.3685,241.891 29.8055,254.916 21.8776,270.735 C13.7217,287.597 11.2956,305.956 7.64786,324.075 C4.00009,342.193 -1.67805,361.688 0.472751,380.288 C5.10128,420.431 33.165,453.054 73.5313,460.35 C111.506,467.232 149.687,472.807 187.971,477.556 C338.361,495.975 490.294,498.178 641.155,484.129 C653.44,482.982 665.708,481.732 677.959,480.378 C681.786,479.958 685.658,480.398 689.292,481.668 C692.926,482.938 696.23,485.005 698.962,487.717 C701.694,490.429 703.784,493.718 705.08,497.342 C706.377,500.967 706.846,504.836 706.453,508.665 L702.633,545.797 C694.936,620.828 687.239,695.854 679.542,770.874 C671.513,849.657 663.431,928.434 655.298,1007.2 C653.004,1029.39 650.71,1051.57 648.416,1073.74 C646.213,1095.58 645.904,1118.1 641.757,1139.68 C635.218,1173.61 612.248,1194.45 578.73,1202.07 C548.022,1209.06 516.652,1212.73 485.161,1213.01 C450.249,1213.2 415.355,1211.65 380.443,1211.84 C343.173,1212.05 297.525,1208.61 268.756,1180.87 C243.479,1156.51 239.986,1118.36 236.545,1085.37 C231.957,1041.7 227.409,998.039 222.9,954.381 L197.607,711.615 L181.244,554.538 C180.968,551.94 180.693,549.376 180.435,546.76 C178.473,528.023 165.207,509.681 144.301,510.627 C126.407,511.418 106.069,526.629 108.168,546.76 L120.298,663.214 L145.385,904.104 C152.532,972.528 159.661,1040.96 166.773,1109.41 C168.15,1122.52 169.44,1135.67 170.885,1148.78 C178.749,1220.43 233.465,1259.04 301.224,1269.91 C340.799,1276.28 381.337,1277.59 421.497,1278.24 C472.979,1279.07 524.977,1281.05 575.615,1271.72 C650.653,1257.95 706.952,1207.85 714.987,1130.13 C717.282,1107.69 719.576,1085.25 721.87,1062.8 C729.498,988.559 737.115,914.313 744.72,840.061 L769.601,597.451 L781.009,486.263 C781.577,480.749 783.905,475.565 787.649,471.478 C791.392,467.391 796.352,464.617 801.794,463.567 C823.25,459.386 843.761,452.245 859.023,435.916 C883.318,409.918 888.153,376.021 879.567,341.849 Z M72.4301,365.835 C72.757,365.68 72.1548,368.484 71.8967,369.792 C71.8451,367.813 71.9483,366.058 72.4301,365.835 Z M74.5121,381.94 C74.6842,381.819 75.2003,382.508 75.7337,383.334 C74.925,382.576 74.4089,382.009 74.4949,381.94 L74.5121,381.94 Z M76.5597,384.641 C77.2996,385.897 77.6953,386.689 76.5597,384.641 L76.5597,384.641 Z M80.672,387.979 L80.7752,387.979 C80.7752,388.1 80.9645,388.22 81.0333,388.341 C80.9192,388.208 80.7925,388.087 80.6548,387.979 L80.672,387.979 Z M800.796,382.989 C793.088,390.319 781.473,393.726 769.996,395.43 C641.292,414.529 510.713,424.199 380.597,419.932 C287.476,416.749 195.336,406.407 103.144,393.382 C94.1102,392.109 84.3197,390.457 78.1082,383.798 C66.4078,371.237 72.1548,345.944 75.2003,330.768 C77.9878,316.865 83.3218,298.334 99.8572,296.355 C125.667,293.327 155.64,304.218 181.175,308.09 C211.917,312.781 242.774,316.538 273.745,319.36 C405.925,331.405 540.325,329.529 671.92,311.91 C695.905,308.686 719.805,304.941 743.619,300.674 C764.835,296.871 788.356,289.731 801.175,311.703 C809.967,326.673 811.137,346.701 809.778,363.615 C809.359,370.984 806.139,377.915 800.779,382.989 L800.796,382.989 Z" id="Shape" fill="#999999"></path>
            <path d="M471.27,590.675 C425.329,610.342 373.193,632.642 305.623,632.642 C277.357,632.585 249.227,628.707 222,621.113 L268.733,1100.91 C270.387,1120.97 279.523,1139.67 294.326,1153.3 C309.129,1166.93 328.517,1174.49 348.639,1174.49 C348.639,1174.49 414.901,1177.93 437.012,1177.93 C460.808,1177.93 532.163,1174.49 532.163,1174.49 C552.283,1174.49 571.666,1166.92 586.466,1153.29 C601.266,1139.66 610.399,1120.97 612.053,1100.91 L662.106,570.716 C639.738,563.076 617.163,557.999986 591.715,557.999986 C547.701,557.983 512.238,573.142 471.27,590.675 Z" id="Path" fill="#FFDD00"></path>
        </g>
    </g>
</svg>