<?xml version="1.0"?>
<svg xmlns="http://www.w3.org/2000/svg" xmlns:xlink="http://www.w3.org/1999/xlink" xmlns:svgjs="http://svgjs.com/svgjs" version="1.1" width="512" height="512" x="0" y="0" viewBox="0 0 512 512" style="enable-background:new 0 0 512 512" xml:space="preserve" class=""><g>
<g xmlns="http://www.w3.org/2000/svg">
	<g>
		<path d="M426.293,160.277l-36.728-48.973V97.097c19.391-6.914,33.391-25.273,33.391-47.01C422.957,22.468,400.489,0,372.87,0    H139.13c-27.619,0-50.087,22.468-50.087,50.087c0,21.737,14,40.096,33.391,47.01v14.207l-36.717,48.962    c-8.619,11.479-13.37,25.712-13.37,40.082v244.87c0,36.826,29.956,66.783,66.783,66.783H372.87    c36.826,0,66.783-29.956,66.783-66.783v-244.87C439.652,185.978,434.902,171.745,426.293,160.277z M372.87,395.13    c0,9.223-7.479,16.696-16.696,16.696H155.826c-9.217,0-16.696-7.473-16.696-16.696V261.565c0-9.223,7.479-16.696,16.696-16.696    h200.348c9.217,0,16.696,7.473,16.696,16.696V395.13z M372.87,66.783H139.13c-9.206,0-16.696-7.49-16.696-16.696    s7.49-16.696,16.696-16.696H372.87c9.206,0,16.696,7.49,16.696,16.696S382.076,66.783,372.87,66.783z" fill="#999999" data-original="#000000" style="" class=""/>
	</g>
</g>
<g xmlns="http://www.w3.org/2000/svg">
</g>
<g xmlns="http://www.w3.org/2000/svg">
</g>
<g xmlns="http://www.w3.org/2000/svg">
</g>
<g xmlns="http://www.w3.org/2000/svg">
</g>
<g xmlns="http://www.w3.org/2000/svg">
</g>
<g xmlns="http://www.w3.org/2000/svg">
</g>
<g xmlns="http://www.w3.org/2000/svg">
</g>
<g xmlns="http://www.w3.org/2000/svg">
</g>
<g xmlns="http://www.w3.org/2000/svg">
</g>
<g xmlns="http://www.w3.org/2000/svg">
</g>
<g xmlns="http://www.w3.org/2000/svg">
</g>
<g xmlns="http://www.w3.org/2000/svg">
</g>
<g xmlns="http://www.w3.org/2000/svg">
</g>
<g xmlns="http://www.w3.org/2000/svg">
</g>
<g xmlns="http://www.w3.org/2000/svg">
</g>
</g></svg>
